<svg xmlns="http://www.w3.org/2000/svg" viewBox="0 0 34.55 34.55"><defs><style>.cls-1{fill:#603813;}.cls-2{fill:#fff;}.cls-3{fill:#ec1c24;}.cls-4{fill:#fff100;}</style></defs><title>Add Appointments</title><g id="Layer_2" data-name="Layer 2"><g id="Layer_1-2" data-name="Layer 1"><path class="cls-1" d="M34.55,17.27A17.27,17.27,0,1,1,17.27,0,17.28,17.28,0,0,1,34.55,17.27"/><rect class="cls-2" x="6.92" y="10.2" width="4.56" height="4.35"/><rect class="cls-2" x="13.14" y="10.2" width="4.56" height="4.35"/><rect class="cls-2" x="19.35" y="10.2" width="4.56" height="4.35"/><rect class="cls-2" x="6.92" y="15.59" width="4.56" height="4.35"/><rect class="cls-2" x="13.14" y="15.59" width="4.56" height="4.35"/><rect class="cls-2" x="19.35" y="15.59" width="4.56" height="4.35"/><rect class="cls-2" x="6.92" y="20.98" width="4.56" height="4.35"/><rect class="cls-2" x="13.14" y="20.98" width="4.56" height="4.35"/><path class="cls-3" d="M24.33,9.44v-2a.83.83,0,0,0-.83-.83h-16a.83.83,0,0,0-.83.83v2Z"/><rect class="cls-4" x="18.15" y="24.15" width="10.34" height="2.65"/><rect class="cls-4" x="22" y="20.31" width="2.65" height="10.34"/></g></g></svg>