<svg xmlns="http://www.w3.org/2000/svg" viewBox="0 0 34.55 34.55"><defs><style>.cls-1{fill:#8bc53f;}.cls-2{fill:#fff;}.cls-3{fill:#ec1c24;}</style></defs><title>Show Appointments</title><g id="Layer_2" data-name="Layer 2"><g id="Layer_1-2" data-name="Layer 1"><path class="cls-1" d="M34.55,17.27A17.27,17.27,0,1,1,17.27,0,17.28,17.28,0,0,1,34.55,17.27"/><rect class="cls-2" x="7.09" y="10.33" width="5.5" height="5.25"/><rect class="cls-2" x="14.59" y="10.33" width="5.5" height="5.25"/><rect class="cls-2" x="22.09" y="10.33" width="5.5" height="5.25"/><rect class="cls-2" x="7.09" y="16.83" width="5.5" height="5.25"/><rect class="cls-2" x="14.59" y="16.83" width="5.5" height="5.25"/><rect class="cls-2" x="22.09" y="16.83" width="5.5" height="5.25"/><rect class="cls-2" x="7.09" y="23.33" width="5.5" height="5.25"/><rect class="cls-2" x="14.59" y="23.33" width="5.5" height="5.25"/><rect class="cls-2" x="22.09" y="23.33" width="5.5" height="5.25"/><path class="cls-3" d="M28.09,9.42V7a1,1,0,0,0-1-1H7.84a1,1,0,0,0-1,1V9.42Z"/><path d="M8.74,20.5,15.32,26s6.75-11.58,17-12.83C27,11.83,17.74,16.67,15,22.08l-3.58-3.42"/></g></g></svg>